<?xml version="1.0" standalone="no"?>
<!DOCTYPE svg PUBLIC "-//W3C//DTD SVG 20010904//EN"
 "http://www.w3.org/TR/2001/REC-SVG-20010904/DTD/svg10.dtd">
<svg version="1.0" xmlns="http://www.w3.org/2000/svg"
 width="512.000000pt" height="512.000000pt" viewBox="0 0 512.000000 512.000000"
 preserveAspectRatio="xMidYMid meet">
<metadata>
Created by potrace 1.14, written by Peter Selinger 2001-2017
</metadata>
<g transform="translate(0.000000,512.000000) scale(0.100000,-0.100000)"
fill="#000000" stroke="none">
<path d="M800 3965 l0 -355 350 0 350 0 0 -700 0 -700 350 0 350 0 0 -350 0
-350 355 0 355 0 0 350 0 350 350 0 350 0 0 700 0 700 350 0 350 0 0 355 0
355 -355 0 -355 0 0 -350 0 -350 -345 0 -345 0 0 350 0 350 -355 0 -355 0 0
-350 0 -350 -345 0 -345 0 0 350 0 350 -355 0 -355 0 0 -355z"/>
<path d="M800 1165 l0 -355 355 0 355 0 0 355 0 355 -355 0 -355 0 0 -355z"/>
<path d="M3600 1165 l0 -355 355 0 355 0 0 355 0 355 -355 0 -355 0 0 -355z"/>
</g>
</svg>
